<?xml version="1.0" encoding="utf-8"?>
<!-- Generated by IcoMoon.io -->
<!DOCTYPE svg PUBLIC "-//W3C//DTD SVG 1.1//EN" "http://www.w3.org/Graphics/SVG/1.1/DTD/svg11.dtd">
<svg version="1.1" xmlns="http://www.w3.org/2000/svg" xmlns:xlink="http://www.w3.org/1999/xlink" width="1536" height="1536" viewBox="0 0 1536 1536"><g id="icomoon-ignore">
</g>
<path fill="#cccccc" d="M0 1215.999c0 70.719 57.279 128.001 128.001 128.001h1280.001c70.719 0 128.001-57.279 128.001-128.001l-0.003-864c0-70.719-57.279-128.001-128.001-128.001l-1279.998 0.003c-70.719 0-128.001 57.279-128.001 128.001v863.997zM471.039 784.959l-292.8-294.72c-24.288-24.321-24.288-63.681 0-87.999 24.351-24.321 63.711-24.321 87.999 0l467.202 467.808c18.879 18.561 49.953 18.561 68.511 0l467.808-467.808c24.321-24.321 63.681-24.321 87.999 0 24.321 24.321 24.321 63.681 0 87.999l-293.121 294.72 293.121 292.767c24.321 24.321 24.321 63.681 0 87.999s-63.681 24.321-87.999 0l-292.8-292.479c0 0-91.488 93.12-108.129 109.761-25.95 25.314-61.791 40.992-100.83 40.992-39.681 0-75.519-15.999-101.439-41.952-16.959-16.641-107.841-108.768-107.841-108.768l-292.512 292.479c-24.288 24.321-63.648 24.321-87.999 0-24.288-24.321-24.288-63.681 0-87.999l292.83-292.8z"></path>
</svg>
