<?xml version="1.0" encoding="UTF-8" standalone="no"?>
<!-- Generator: Adobe Illustrator 16.0.0, SVG Export Plug-In . SVG Version: 6.00 Build 0)  -->

<svg
   xmlns:dc="http://purl.org/dc/elements/1.1/"
   xmlns:cc="http://creativecommons.org/ns#"
   xmlns:rdf="http://www.w3.org/1999/02/22-rdf-syntax-ns#"
   xmlns:svg="http://www.w3.org/2000/svg"
   xmlns="http://www.w3.org/2000/svg"
   xmlns:sodipodi="http://sodipodi.sourceforge.net/DTD/sodipodi-0.dtd"
   xmlns:inkscape="http://www.inkscape.org/namespaces/inkscape"
   version="1.1"
   id="Capa_1"
   x="0px"
   y="0px"
   width="801.57043"
   height="800.34766"
   viewBox="0 0 673.37709 672.35143"
   xml:space="preserve"
   sodipodi:docname="contact-li.svg"
   inkscape:version="0.92.2 (5c3e80d, 2017-08-06)"><metadata
     id="metadata3737"><rdf:RDF><cc:Work
         rdf:about=""><dc:format>image/svg+xml</dc:format><dc:type
           rdf:resource="http://purl.org/dc/dcmitype/StillImage" /><dc:title></dc:title></cc:Work></rdf:RDF></metadata><defs
     id="defs3735" /><sodipodi:namedview
     pagecolor="#ffffff"
     bordercolor="#666666"
     borderopacity="1"
     objecttolerance="10"
     gridtolerance="10"
     guidetolerance="10"
     inkscape:pageopacity="0"
     inkscape:pageshadow="2"
     inkscape:window-width="1920"
     inkscape:window-height="1005"
     id="namedview3733"
     showgrid="false"
     inkscape:zoom="1.1214272"
     inkscape:cx="211.40837"
     inkscape:cy="462.03214"
     inkscape:window-x="-9"
     inkscape:window-y="-9"
     inkscape:window-maximized="1"
     inkscape:current-layer="layer7"
     fit-margin-top="0"
     fit-margin-left="0"
     fit-margin-right="0"
     fit-margin-bottom="0" /><g
     id="g3702"
     transform="translate(0.04317205,121.27832)" /><g
     id="g3704"
     transform="translate(0.04317205,121.27832)" /><g
     id="g3706"
     transform="translate(0.04317205,121.27832)" /><g
     id="g3708"
     transform="translate(0.04317205,121.27832)" /><g
     id="g3710"
     transform="translate(0.04317205,121.27832)" /><g
     id="g3712"
     transform="translate(0.04317205,121.27832)" /><g
     id="g3714"
     transform="translate(0.04317205,121.27832)" /><g
     id="g3716"
     transform="translate(0.04317205,121.27832)" /><g
     id="g3718"
     transform="translate(0.04317205,121.27832)" /><g
     id="g3720"
     transform="translate(0.04317205,121.27832)" /><g
     id="g3722"
     transform="translate(0.04317205,121.27832)" /><g
     id="g3724"
     transform="translate(0.04317205,121.27832)" /><g
     id="g3726"
     transform="translate(0.04317205,121.27832)" /><g
     id="g3728"
     transform="translate(0.04317205,121.27832)" /><g
     id="g3730"
     transform="translate(0.04317205,121.27832)" /><g
     inkscape:groupmode="layer"
     id="layer7"
     inkscape:label="Foreground"><rect
       style="fill:#ffffff;fill-opacity:1;stroke-width:0.84007424"
       id="rect2002"
       width="515.38885"
       height="478.68237"
       x="77.157722"
       y="97.782745" /></g><g
     inkscape:groupmode="layer"
     id="layer1"
     inkscape:label="Background"
     transform="translate(0.04317205,121.27832)"
     style="display:inline"><g
       id="g3700"
       transform="matrix(1.563179,0,0,1.563179,-0.8748174,-121.27832)"><path
         id="LinkedIn__x28_alt_x29_"
         d="M 398.355,0 H 31.782 C 14.229,0 0.53170197,0.09428571 0.53170197,0.09428571 L 0.56383378,430.09522 c 0,0 13.67016622,0.0228 31.21816622,0.0228 h 366.573 c 17.549,0 30.91725,-0.11642 30.91725,-0.11642 L 431.30683,0.02807297 C 431.30683,0.02807297 415.904,0 398.355,0 Z M 130.4,360.038 H 65.413 V 165.845 H 130.4 Z M 97.913,139.315 h -0.437 c -21.793,0 -35.92,-14.904 -35.92,-33.563 0,-19.035 14.542,-33.535 36.767,-33.535 22.227,0 35.899,14.496 36.331,33.535 0,18.663 -14.099,33.563 -36.741,33.563 z m 266.746,220.723 h -64.966 v -103.9 c 0,-26.107 -9.413,-43.921 -32.907,-43.921 -17.973,0 -28.642,12.018 -33.327,23.621 -1.736,4.144 -2.166,9.94 -2.166,15.728 v 108.468 h -64.954 c 0,0 0.85,-175.979 0,-194.192 h 64.964 v 27.531 c 8.624,-13.229 24.035,-32.1 58.534,-32.1 42.76,0 74.822,27.739 74.822,87.414 z M 230.883,193.99 c 0.111,-0.182 0.266,-0.401 0.42,-0.614 v 0.614 z"
         inkscape:connector-curvature="0"
         style="fill:#4875b4"
         sodipodi:nodetypes="ssccssccscccccsssscsccsscscccccssccccc" /></g></g></svg>