<?xml version="1.0" encoding="UTF-8" standalone="no"?>
<!-- Generator: Adobe Illustrator 16.0.0, SVG Export Plug-In . SVG Version: 6.00 Build 0)  -->

<svg
   xmlns:dc="http://purl.org/dc/elements/1.1/"
   xmlns:cc="http://creativecommons.org/ns#"
   xmlns:rdf="http://www.w3.org/1999/02/22-rdf-syntax-ns#"
   xmlns:svg="http://www.w3.org/2000/svg"
   xmlns="http://www.w3.org/2000/svg"
   xmlns:sodipodi="http://sodipodi.sourceforge.net/DTD/sodipodi-0.dtd"
   xmlns:inkscape="http://www.inkscape.org/namespaces/inkscape"
   version="1.1"
   id="Capa_1"
   x="0px"
   y="0px"
   width="800.38708"
   height="800.26813"
   viewBox="0 0 800.38708 800.26813"
   enable-background="new 0 0 512 512"
   xml:space="preserve"
   sodipodi:docname="contact-fb.svg"
   inkscape:version="0.92.2 (5c3e80d, 2017-08-06)"><metadata
     id="metadata3756"><rdf:RDF><cc:Work
         rdf:about=""><dc:format>image/svg+xml</dc:format><dc:type
           rdf:resource="http://purl.org/dc/dcmitype/StillImage" /><dc:title></dc:title></cc:Work></rdf:RDF></metadata><defs
     id="defs3754" /><sodipodi:namedview
     pagecolor="#ffffff"
     bordercolor="#666666"
     borderopacity="1"
     objecttolerance="10"
     gridtolerance="10"
     guidetolerance="10"
     inkscape:pageopacity="0"
     inkscape:pageshadow="2"
     inkscape:window-width="1920"
     inkscape:window-height="1005"
     id="namedview3752"
     showgrid="false"
     inkscape:zoom="1.1214272"
     inkscape:cx="356.35781"
     inkscape:cy="466.71404"
     inkscape:window-x="-9"
     inkscape:window-y="-9"
     inkscape:window-maximized="1"
     inkscape:current-layer="layer6"
     fit-margin-top="0"
     fit-margin-left="0"
     fit-margin-right="0"
     fit-margin-bottom="0" /><g
     inkscape:groupmode="layer"
     id="layer6"
     inkscape:label="foreground"><rect
       style="fill:#ffffff;fill-opacity:1"
       id="rect1406"
       width="450.31903"
       height="721.40216"
       x="286.2424"
       y="39.630253" /></g><g
     inkscape:groupmode="layer"
     id="layer5"
     inkscape:label="background"
     style="display:inline"><g
       id="g3749"
       transform="matrix(1.5622298,0,0,1.5622298,0.00301257,0)"><path
         d="M 512.05427,0 H 85.342 C 38.406,0 0.18468144,0.18259847 0.18468144,0.18259847 L 0,426.657 C -0.02033956,473.626 0.12692454,512 0.12692454,512 L 426.672,511.999 c 46.938,0 85.6624,0.2612 85.6624,0.2612 L 512,85.344 C 511.96324,38.407014 512.05427,0 512.05427,0 Z M 435.297,256 H 352 V 480 H 256 V 256 H 209.737 V 182.718 H 256 V 135.125 C 256,70.454 283.896,32 359.936,32 h 87.621 v 79.285 h -71.563 c -21.24,-0.035 -23.875,11.076 -23.875,31.756 L 352,182.718 h 96 z"
         id="path3747"
         inkscape:connector-curvature="0"
         style="fill:#3078b3"
         sodipodi:nodetypes="cscscccscccccccccssccccccc" /></g></g></svg>