<?xml version="1.0" encoding="UTF-8" standalone="no"?>
<!-- Created with Inkscape (http://www.inkscape.org/) -->

<svg
   xmlns:dc="http://purl.org/dc/elements/1.1/"
   xmlns:cc="http://creativecommons.org/ns#"
   xmlns:rdf="http://www.w3.org/1999/02/22-rdf-syntax-ns#"
   xmlns:svg="http://www.w3.org/2000/svg"
   xmlns="http://www.w3.org/2000/svg"
   xmlns:sodipodi="http://sodipodi.sourceforge.net/DTD/sodipodi-0.dtd"
   xmlns:inkscape="http://www.inkscape.org/namespaces/inkscape"
   width="211.88374mm"
   height="213.99654mm"
   viewBox="0 0 211.88374 213.99654"
   version="1.1"
   id="svg2010"
   inkscape:version="0.92.2 (5c3e80d, 2017-08-06)"
   sodipodi:docname="contact-gh.svg">
  <defs
     id="defs2004" />
  <sodipodi:namedview
     id="base"
     pagecolor="#ffffff"
     bordercolor="#666666"
     borderopacity="1.0"
     inkscape:pageopacity="0.0"
     inkscape:pageshadow="2"
     inkscape:zoom="3.959798"
     inkscape:cx="292.41349"
     inkscape:cy="6.2388994"
     inkscape:document-units="px"
     inkscape:current-layer="layer8"
     showgrid="false"
     fit-margin-top="0"
     fit-margin-left="0"
     fit-margin-right="0"
     fit-margin-bottom="0"
     inkscape:window-width="1920"
     inkscape:window-height="1005"
     inkscape:window-x="-9"
     inkscape:window-y="-9"
     inkscape:window-maximized="1" />
  <metadata
     id="metadata2007">
    <rdf:RDF>
      <cc:Work
         rdf:about="">
        <dc:format>image/svg+xml</dc:format>
        <dc:type
           rdf:resource="http://purl.org/dc/dcmitype/StillImage" />
        <dc:title></dc:title>
      </cc:Work>
    </rdf:RDF>
  </metadata>
  <g
     inkscape:groupmode="layer"
     id="layer9"
     inkscape:label="Layer 3"
     style="display:inline">
    <rect
       style="fill:#ffffff;fill-opacity:1;stroke-width:0.24251208"
       id="rect2571"
       width="211.87247"
       height="179.76659"
       x="4.553071e-016"
       y="33.676109" />
  </g>
  <g
     inkscape:groupmode="layer"
     id="layer8"
     inkscape:label="Layer 2"
     transform="translate(0.12377904,26.199228)"
     style="display:inline">
    <path
       style="display:inline;fill:#333333;stroke-width:0.35078076;fill-opacity:1"
       d="m 2.3129514,187.79731 c -0.7011138,-0.005 -1.75255323,-0.0133 -2.42613444,-0.0166 l -0.009546,-3.96501 V 80.789893 -22.23589 l -0.00105,-3.963188 c 0.29737501,0.01379 1.96357984,0.0249 2.74850184,0.01546 l 1.2148848,-0.01461 H 105.81306 207.78651 l 3.96319,-0.001 c 0.0167,1.221675 0.008,1.666895 0.008,2.474454 l -0.009,1.488931 V 82.771069 187.77802 h -35.97809 c -25.96183,0 -36.1914,-0.10991 -36.74428,-0.39461 -1.16742,-0.60126 -2.37503,-1.78719 -2.81289,-2.76242 -0.26695,-0.59451 -0.46315,-7.14712 -0.60923,-20.34528 -0.20304,-18.34603 -0.25928,-19.65033 -0.97549,-22.62535 -0.91683,-3.80837 -2.54912,-7.33716 -4.70553,-10.17265 -0.88033,-1.15758 -1.5605,-2.14508 -1.51147,-2.19445 0.0491,-0.0493 1.73251,-0.3989 3.74105,-0.77674 10.92355,-2.05488 16.84645,-3.75719 22.42564,-6.44542 11.84107,-5.70539 18.64443,-13.8532 23.18453,-27.766131 3.76134,-11.526459 4.16029,-23.41962 1.15737,-34.502864 -1.1185,-4.128195 -1.97494,-6.063513 -4.52818,-10.232247 -5.40883,-8.831185 -5.28242,-8.475676 -4.32748,-12.168837 0.91624,-3.543533 1.2576,-11.683821 0.64852,-15.465207 -0.239,-1.483861 -0.88618,-4.276448 -1.43818,-6.205742 -1.30912,-4.575562 -1.85158,-5.091032 -5.33972,-5.073998 -5.81269,0.02839 -10.10327,1.615346 -21.85706,8.084277 -3.35429,1.8461 -5.73973,2.933821 -6.67138,3.042029 -0.84355,0.09798 -3.26466,-0.205323 -5.78788,-0.725064 -5.66001,-1.165873 -5.97021,-1.213209 -11.9073,-1.817163 -10.96443,-1.115367 -25.31256,-0.309764 -34.874878,1.958114 -4.495537,1.066198 -5.493999,0.944065 -8.94491,-1.094145 -8.889955,-5.25067 -17.593359,-8.763737 -23.58709,-9.520762 -4.512847,-0.569982 -4.688329,-0.446731 -6.149579,4.319192 -2.437576,7.950225 -2.727328,15.24009 -0.912638,22.960756 0.321832,1.369235 0.4821,2.90009 0.356151,3.401904 -0.125949,0.501813 -0.990818,1.907148 -1.921938,3.122975 -8.416212,10.989624 -11.026603,24.805493 -8.006388,42.374983 2.854451,16.60518 10.657951,27.91146 24.05109,34.84698 6.112709,3.16542 12.059776,4.95967 22.805361,6.88048 2.202261,0.39365 4.079317,0.79094 4.171229,0.88285 0.09192,0.0919 -0.3952,0.85336 -1.082478,1.69209 -1.931107,2.35666 -3.59953,5.69166 -4.803599,9.6019 -1.231636,3.99973 -1.380554,4.16032 -4.920121,5.30566 -7.549008,2.44269 -14.74819,1.88126 -20.317333,-1.58448 -3.743283,-2.32948 -5.254107,-3.83004 -9.216304,-9.15371 -1.912253,-2.56932 -4.218276,-5.38525 -5.124496,-6.2576 -3.760753,-3.62022 -9.51604,-5.98497 -13.705028,-5.63115 -3.315548,0.28003 -4.253951,0.70383 -4.253951,1.92114 0,1.17122 1.655454,2.87137 5.612491,5.76404 4.559439,3.33301 7.196071,6.75524 10.448451,13.56161 3.144247,6.58008 5.861617,10.04153 9.965004,12.69367 2.356057,1.5228 6.507688,3.19553 9.588957,3.86346 2.39993,0.52024 11.452426,0.64025 17.141715,0.22724 l 3.822699,-0.2775 -0.185008,11.6254 c -0.203522,12.78898 0.332261,12.85487 -2.043953,14.62922 -0.961104,0.71768 -1.704118,0.2589 -36.597609,0.35396 l -35.1639834,0.0958 z"
       id="path2567"
       inkscape:connector-curvature="0"
       sodipodi:nodetypes="ccccccsccccccccsccscccssssccccsscssssssccsscccsccscccscscsccscccc" />
  </g>
</svg>
