<?xml version="1.0" encoding="utf-8"?>
<!-- Generator: Adobe Illustrator 19.0.0, SVG Export Plug-In . SVG Version: 6.00 Build 0)  -->
<svg version="1.1" id="Layer_1" xmlns="http://www.w3.org/2000/svg" xmlns:xlink="http://www.w3.org/1999/xlink" x="0px" y="0px"
	 viewBox="0 0 20.6 18.9" style="enable-background:new 0 0 20.6 18.9;" xml:space="preserve">
<style type="text/css">
	.st0{fill:#f88400;}
</style>
<g>
	<g id="XMLID_24_">
		<path id="Bebo_9_" class="st0" d="M6.7,18.9H5.4c-3,0-5.4-2.4-5.4-5.4V6.7C0,6,0.6,5.4,1.3,5.4c0.7,0,1.3,0.6,1.3,1.3v6.7
			c0,1.5,1.2,2.7,2.7,2.7h1.3c1.5,0,2.7-1.1,2.7-2.4c0-1.3-0.7-2.4-1.3-2.4H5.4c-0.7,0-1.3-0.6-1.3-1.4c0-0.7,0.6-1.3,1.3-1.3h2.7
			c2.2,0,4,2.3,4,5.1C12.1,16.6,9.7,18.9,6.7,18.9z"/>
		<path id="Blip_9_" class="st0" d="M7.9,4.3v2.4c1.6,0,3.1,0.6,4.2,1.7c1.1,1.1,1.7,2.7,1.7,4.2h2.4C16.3,8.1,12.5,4.3,7.9,4.3z
			 M7.9,0v2.4c5.6,0,10.3,4.6,10.3,10.3h2.4C20.6,5.7,14.9,0,7.9,0z"/>
	</g>
</g>
</svg>
